<svg width="406" height="29" viewBox="0 0 406 29" fill="none" xmlns="http://www.w3.org/2000/svg">
<path fill-rule="evenodd" clip-rule="evenodd" d="M358.975 4.60482C305.228 1.43945 201.029 0.0182602 146.442 1.69785C94.569 3.31283 33.5225 8.73921 7.23027 8.73921C0.318129 8.73921 -0.134134 8.80379 0.899458 9.83739C2.44985 11.3878 15.1114 11.7108 37.463 10.7418C54.7757 10.0312 55.1633 10.0312 57.8765 11.3232C60.5896 12.6152 61.0418 12.6152 77.3209 11.9692C109.104 10.6772 131.261 9.256 140.305 9.3206C148.51 9.3852 149.866 10.548 134.556 11.2586C99.0263 13.0028 98.6387 13.0674 100.964 15.3283C101.998 16.3619 103.355 16.4911 115.37 16.2973C128.548 16.1035 128.096 15.7805 129.646 17.2663C130.68 18.2353 132.037 18.7521 133.458 18.8167C144.375 18.9459 175.125 19.6565 175.125 19.6565C166.727 19.9149 156.455 20.7547 155.938 21.2715C153.613 23.5971 156.649 23.7909 195.28 24.3723C238.755 24.9537 271.701 27.1501 275.835 28.7004C276.869 29.088 277.45 28.3128 276.74 27.4085C274.285 24.4369 233.135 23.4679 216.145 22.5635C212.657 22.3697 210.46 21.2069 219.763 20.8839C241.856 20.1733 233.91 17.9123 231.52 17.7185C228.29 17.4601 220.861 17.5247 202.515 17.2017C193.665 17.0725 197.153 15.9743 202.902 15.9097C256.003 15.1991 263.69 15.6513 263.69 15.3283C263.69 13.1966 261.817 12.9382 238.367 12.6152C217.631 12.2922 222.347 11.0002 235.59 10.9356C255.099 10.871 292.502 11.517 293.019 10.7418C294.052 8.99759 291.339 7.89941 285.073 7.44722C275.254 6.73662 314.789 7.5118 343.406 8.5454C396.83 10.4834 405.745 12.6798 405.745 10.4834C405.874 7.4472 404.388 7.2534 358.975 4.60482Z" fill="#6DB8FF"/>
</svg>
